<?xml version="1.0" encoding="UTF-8"?>
<svg width="100pt" height="100pt" version="1.1" viewBox="0 0 100 100" xmlns="http://www.w3.org/2000/svg">
 <g fill="#fff" fill-rule="evenodd">
  <path d="m35 62c1.1055 0 2-0.89453 2-2s-0.89453-2-2-2-2 0.89453-2 2 0.89453 2 2 2zm0 4c-3.3125 0-6-2.6875-6-6s2.6875-6 6-6 6 2.6875 6 6-2.6875 6-6 6zm30-4c1.1055 0 2-0.89453 2-2s-0.89453-2-2-2-2 0.89453-2 2 0.89453 2 2 2zm0 4c-3.3125 0-6-2.6875-6-6s2.6875-6 6-6 6 2.6875 6 6-2.6875 6-6 6z"/>
  <path d="m50 20c21.434 0 31.383 8.6133 36 16.609v-26.609h4v60s0 20-40 20-40-20-40-20v-60h4v26.609c4.6172-7.9961 14.566-16.609 36-16.609zm-30 40c0-8.2852 6.707-15 15.004-15h29.992c8.2852 0 15.004 6.7148 15.004 15s-6.707 15-15.004 15h-29.992c-8.2852 0-15.004-6.7148-15.004-15zm-6-50c0-1.1055-0.89453-2-2-2s-2 0.89453-2 2zm76 0c0-1.1055-0.89453-2-2-2s-2 0.89453-2 2z"/>
 </g>
</svg>
